<?xml version="1.0" standalone="no"?>
<!DOCTYPE svg PUBLIC "-//W3C//DTD SVG 20010904//EN"
 "http://www.w3.org/TR/2001/REC-SVG-20010904/DTD/svg10.dtd">
<svg version="1.0" xmlns="http://www.w3.org/2000/svg"
 width="1024.000000pt" height="1024.000000pt" viewBox="0 0 1024.000000 1024.000000"
 preserveAspectRatio="xMidYMid meet">

<g transform="translate(0.000000,1024.000000) scale(0.100000,-0.100000)"
fill="#000000" stroke="none">
<path d="M2125 9134 c-34 -114 -93 -309 -106 -352 -6 -17 -19 -37 -29 -42 -11
-6 -102 -35 -202 -66 -247 -74 -248 -74 -248 -83 0 -4 55 -24 123 -45 67 -21
167 -51 222 -68 55 -17 107 -38 116 -47 9 -9 44 -113 79 -231 35 -118 67 -222
71 -230 7 -13 8 -13 13 0 6 15 65 209 113 370 14 47 30 90 37 96 6 6 67 28
136 48 69 21 171 52 228 68 56 17 102 35 102 39 0 4 -33 17 -72 29 -154 45
-275 83 -337 104 l-65 21 -27 90 c-15 50 -46 153 -69 230 -24 77 -46 144 -50
149 -5 4 -20 -32 -35 -80z"/>
<path d="M5328 9087 c-20 -67 -51 -171 -70 -232 l-33 -110 -120 -38 c-178 -57
-265 -84 -312 -97 -24 -6 -43 -14 -43 -19 0 -4 46 -22 103 -39 56 -16 158 -47
227 -68 69 -20 130 -42 137 -48 11 -10 23 -47 111 -343 20 -68 41 -122 46
-120 7 3 46 121 132 409 15 49 22 59 48 67 100 31 301 93 364 111 39 11 72 25
72 30 0 8 -42 22 -342 114 -64 20 -120 41 -123 46 -5 8 -102 320 -134 429 -4
14 -11 26 -17 28 -5 2 -25 -52 -46 -120z"/>
<path d="M7713 9090 c-23 -5 -56 -16 -75 -25 -18 -9 -1504 -1487 -3301 -3283
-2458 -2457 -3275 -3279 -3295 -3317 -24 -45 -27 -61 -27 -150 0 -86 3 -106
24 -145 32 -62 1069 -1099 1131 -1131 39 -21 59 -24 145 -24 89 0 105 3 150
27 38 20 860 837 3317 3295 2782 2782 3271 3275 3289 3318 17 38 22 69 22 131
0 150 18 127 -581 726 -452 452 -535 531 -582 552 -62 28 -155 39 -217 26z
m347 -1035 l265 -265 -738 -738 -737 -737 -267 268 -268 267 735 735 c404 404
737 735 740 735 3 0 124 -119 270 -265z"/>
<path d="M3755 8879 c-5 -15 -37 -119 -86 -284 -17 -55 -48 -157 -70 -227 -21
-71 -57 -188 -80 -260 -22 -73 -45 -144 -50 -158 -8 -21 -27 -30 -137 -63 -70
-21 -184 -56 -254 -78 -71 -21 -185 -57 -255 -78 -71 -22 -170 -52 -221 -68
-51 -16 -92 -33 -91 -39 1 -5 34 -19 73 -31 39 -12 132 -40 206 -63 74 -23
155 -48 180 -55 25 -7 106 -32 180 -55 74 -23 175 -54 224 -69 l89 -27 17 -54
c10 -30 32 -102 50 -160 17 -58 49 -161 70 -230 31 -101 83 -273 149 -490 4
-14 12 -25 16 -25 5 0 40 101 77 225 38 124 84 277 104 340 72 232 91 296 105
342 15 53 10 50 169 99 58 17 139 42 180 55 117 35 327 100 473 145 72 22 138
42 146 45 25 8 0 21 -94 48 -49 15 -101 31 -115 36 -14 4 -72 23 -130 40 -58
17 -161 49 -230 70 -69 21 -179 55 -245 75 -66 21 -125 42 -132 49 -11 11 -37
92 -143 441 -29 94 -70 229 -92 300 -21 72 -44 146 -50 165 -13 43 -26 58 -33
39z"/>
<path d="M8571 5958 c-5 -18 -33 -109 -61 -203 -28 -93 -56 -184 -61 -201 -8
-25 -18 -34 -47 -42 -20 -5 -113 -33 -207 -62 -93 -28 -181 -55 -194 -59 -14
-4 -26 -11 -28 -17 -2 -5 52 -26 120 -46 296 -88 333 -100 343 -111 6 -7 28
-68 48 -137 102 -339 99 -331 111 -318 7 7 17 31 23 53 12 49 83 279 109 355
l18 55 110 33 c61 19 165 50 232 70 68 21 122 41 120 46 -2 6 -14 13 -28 17
-109 32 -421 129 -429 134 -5 3 -26 59 -46 123 -92 300 -106 342 -114 342 -5
0 -13 -15 -19 -32z"/>
<path d="M7349 5253 l-54 -177 -120 -37 c-66 -21 -146 -45 -178 -54 -33 -9
-55 -20 -50 -25 4 -4 71 -26 148 -49 77 -24 154 -47 170 -52 29 -9 32 -16 84
-184 30 -96 57 -175 60 -175 3 0 21 51 40 113 19 61 42 140 53 174 l19 62 112
35 c61 19 140 43 174 53 35 10 63 21 63 25 0 6 -146 54 -283 93 -31 9 -61 24
-66 33 -5 9 -30 87 -56 172 -26 85 -50 158 -54 163 -4 4 -32 -72 -62 -170z"/>
</g>
</svg>
